
<svg width="156" height="48" viewBox="0 0 156 48" fill="none" xmlns="http://www.w3.org/2000/svg">
<!-- <path d="M99.0918 15.0404C99.0918 14.1806 99.7911 13.4812 100.651 13.4812C101.511 13.4812 102.21 14.1806 102.21 15.0404C102.21 15.9002 101.511 16.5996 100.651 16.5996C99.7911 16.5996 99.0918 15.9002 99.0918 15.0404ZM102.002 15.0404C102.002 14.2933 101.398 13.6808 100.651 13.6808C99.9038 13.6808 99.3 14.292 99.3 15.0404C99.3 15.7888 99.9038 16.4 100.651 16.4C101.398 16.4 102.002 15.7888 102.002 15.0404ZM100.132 15.7729V14.27H100.79C101.098 14.27 101.271 14.4464 101.271 14.6815C101.271 14.902 101.135 15.0367 100.967 15.0612C101.166 15.0649 101.25 15.1408 101.25 15.3809V15.7729H101.006V15.3772C101.006 15.2499 100.939 15.1849 100.79 15.1849H100.375V15.7729H100.132ZM100.375 14.9926H100.691C100.895 14.9926 101.027 14.9081 101.027 14.7367C101.027 14.5284 100.903 14.4684 100.691 14.4684H100.375V14.9926Z" fill="black"/> -->
<path d="M62.5834 14.0977L58.7232 24.3214L54.7564 14.0977H47.2858L55.0773 32.9724L51.8245 40.4083H59.0808L69.8397 14.099H62.5834V14.0977ZM38.0982 13.4804C32.5908 13.4804 28.1268 17.9474 28.1268 23.4567V33.9008H35.0402V22.7879C35.0402 21.1001 35.9293 19.7271 38.097 19.7271C40.2647 19.7271 41.1538 20.958 41.1538 22.7879V33.9008H48.0672V23.4567C48.0672 17.3301 42.9676 13.4804 38.0958 13.4804H38.0982ZM91.0611 13.4804C88.6815 13.5123 86.553 14.3782 84.9095 15.7978C83.337 14.3782 81.2697 13.5123 78.8889 13.4804C73.444 13.5539 69.0559 17.9915 69.0559 23.4542V33.8995H75.9705V22.7842C75.9705 21.1381 77.0788 19.792 78.8889 19.7246C80.7002 19.792 81.4767 21.1381 81.4767 22.7842V33.8995H88.1439V22.7842C88.1439 21.1381 89.2522 19.792 91.0623 19.7246C92.8736 19.792 93.6501 21.1381 93.6501 22.7842V33.8995H100.566V23.4542C100.566 17.9915 96.5097 13.5539 91.0635 13.4804H91.0611ZM10.3395 10.1562L0.103516 33.902H7.97581L13.6253 18.6051L19.2736 33.902H27.1458L16.9099 10.1562H10.3395Z" fill="black"/>
<path d="M146.472 16.3197C144.249 16.1005 142.02 16.049 139.796 16.0968C139.843 13.8725 139.791 11.6433 139.573 9.42025C139.279 6.7244 138.485 0.595362 135.239 0.0221419C132.027 -0.39185 129.655 5.10273 128.594 7.86104C124.257 5.55592 118.294 3.5521 114.814 6.84933C111.33 10.443 113.724 16.6798 115.814 20.5686C114.117 21.2239 112.468 21.998 110.93 22.9828C109.26 24.0606 107.028 26.0595 108.245 28.2238C110.451 31.7954 120.16 31.8628 124.176 31.7158C124.037 35.8545 124.114 45.4522 127.671 47.652C129.833 48.8683 131.833 46.6354 132.911 44.966C133.832 43.4827 134.629 41.8304 135.322 40.0802C135.995 40.4427 136.678 40.7856 137.376 41.0992C140.513 42.4857 144.743 43.7693 147.94 41.9407C149.613 40.9853 150.566 39.1223 150.724 37.252C150.982 33.8176 149.688 30.382 148.029 27.3052C149.007 26.9328 149.972 26.525 150.915 26.0583C152.791 25.1017 155.949 23.3441 155.895 20.9153C155.644 17.4527 149.177 16.6149 146.471 16.3222L146.472 16.3197ZM130.391 5.25461C131.229 3.64763 133.044 0.437359 135.129 0.726418C136.143 0.910142 136.77 1.86183 137.202 2.72656C138.842 6.37288 138.965 11.3432 138.875 15.4807C136.541 13.2527 134.024 11.2097 131.305 9.45455C130.658 9.03565 129.915 8.58369 129.105 8.13663C129.49 7.15432 129.913 6.18793 130.391 5.25338V5.25461ZM114.422 15.8383C113.576 13.0984 113.083 9.5611 115.302 7.34784C119.297 3.65376 127.051 7.66262 130.844 10.1662C133.493 11.9079 135.952 13.9386 138.23 16.1507C136.411 16.2474 134.599 16.4079 132.792 16.6247C128.468 17.1489 124.176 17.9549 119.989 19.1687C118.773 19.5324 117.556 19.9207 116.358 20.3629C115.585 18.9078 114.91 17.4012 114.421 15.8383H114.422ZM117.991 30.9993C115.48 30.7813 110.35 30.1627 108.892 27.9531C108.084 26.7087 109.091 25.3614 110.069 24.5334C114.099 21.2349 121.407 19.4749 126.502 18.4705C130.398 17.743 134.348 17.2628 138.306 17.0803L124.426 31.1389C124.426 31.1389 124.423 31.1389 124.42 31.1389C124.423 31.1389 124.424 31.1389 124.426 31.1389L124.42 31.145V31.1389C124.42 31.1389 124.42 31.1389 124.421 31.1389C122.276 31.1916 120.125 31.1793 117.992 30.9981L117.991 30.9993ZM131.361 45.827C130.533 46.8069 129.187 47.8125 127.941 47.0041C126.993 46.388 126.476 45.2342 126.085 44.1919C124.723 40.2186 124.676 35.3168 124.755 31.477C124.755 31.477 124.729 31.4721 124.726 31.4708L138.812 17.5862C138.629 21.5461 138.15 25.4961 137.421 29.3923C136.417 34.4913 134.656 41.7998 131.359 45.827H131.361ZM148.559 40.5774C145.286 43.8465 139.126 41.4495 135.532 39.5388C137.527 34.283 138.613 28.2116 139.268 23.1004C139.485 21.295 139.646 19.481 139.742 17.6621C141.953 19.9391 143.981 22.3949 145.722 25.0429C148.228 28.8326 152.229 36.5833 148.56 40.5774H148.559ZM147.748 26.792C147.322 26.0301 146.877 25.2903 146.432 24.5824C144.679 21.867 142.637 19.3524 140.411 17.0191C144.55 16.9297 149.519 17.0522 153.164 18.6922C154.029 19.1246 154.98 19.7505 155.164 20.7658C155.509 23.4727 150.163 25.8391 147.747 26.7932L147.748 26.792Z" fill="black"/>
</svg>