<svg width="48" height="48" viewBox="80 0 57 57" fill="none" xmlns="http://www.w3.org/2000/svg">
  <path d="M126.472 16.3197C124.249 16.1005 122.02 16.049 119.796 16.0968C119.843 13.8725 119.791 11.6433 119.573 9.42025C119.279 6.7244 118.485 0.595362 115.239 0.0221419C112.027 -0.39185 109.655 5.10273 108.594 7.86104C104.257 5.55592 98.294 3.5521 94.814 6.84933C91.33 10.443 93.724 16.6798 95.814 20.5686C94.117 21.2239 92.468 21.998 90.93 22.9828C89.26 24.0606 87.028 26.0595 88.245 28.2238C90.451 31.7954 100.16 31.8628 104.176 31.7158C104.037 35.8545 104.114 45.4522 107.671 47.652C109.833 48.8683 111.833 46.6354 112.911 44.966C113.832 43.4827 114.629 41.8304 115.322 40.0802C115.995 40.4427 116.678 40.7856 117.376 41.0992C120.513 42.4857 124.743 43.7693 127.94 41.9407C129.613 40.9853 130.566 39.1223 130.724 37.252C130.982 33.8176 129.688 30.382 128.029 27.3052C129.007 26.9328 129.972 26.525 130.915 26.0583C132.791 25.1017 135.949 23.3441 135.895 20.9153C135.644 17.4527 129.177 16.6149 126.471 16.3222L126.472 16.3197ZM110.391 5.25461C111.229 3.64763 113.044 0.437359 115.129 0.726418C116.143 0.910142 116.77 1.86183 117.202 2.72656C118.842 6.37288 118.965 11.3432 118.875 15.4807C116.541 13.2527 114.024 11.2097 111.305 9.45455C110.658 9.03565 109.915 8.58369 109.105 8.13663C109.49 7.15432 109.913 6.18793 110.391 5.25338V5.25461ZM94.422 15.8383C93.576 13.0984 93.083 9.5611 95.302 7.34784C99.297 3.65376 107.051 7.66262 110.844 10.1662C113.493 11.9079 115.952 13.9386 118.23 16.1507C116.411 16.2474 114.599 16.4079 112.792 16.6247C108.468 17.1489 104.176 17.9549 99.989 19.1687C98.773 19.5324 97.556 19.9207 96.358 20.3629C95.585 18.9078 94.91 17.4012 94.421 15.8383H94.422ZM97.991 30.9993C95.48 30.7813 90.35 30.1627 88.892 27.9531C88.084 26.7087 89.091 25.3614 90.069 24.5334C94.099 21.2349 101.407 19.4749 106.502 18.4705C110.398 17.743 114.348 17.2628 118.306 17.0803L104.426 31.1389C104.426 31.1389 104.423 31.1389 104.42 31.1389C104.423 31.1389 104.424 31.1389 104.426 31.1389L104.42 31.145V31.1389C104.42 31.1389 104.42 31.1389 104.421 31.1389C102.276 31.1916 100.125 31.1793 97.992 30.9981L97.991 30.9993ZM111.361 45.827C110.533 46.8069 109.187 47.8125 107.941 47.0041C106.993 46.388 106.476 45.2342 106.085 44.1919C104.723 40.2186 104.676 35.3168 104.755 31.477C104.755 31.477 104.729 31.4721 104.726 31.4708L118.812 17.5862C118.629 21.5461 118.15 25.4961 117.421 29.3923C116.417 34.4913 114.656 41.7998 111.359 45.827H111.361ZM128.559 40.5774C125.286 43.8465 119.126 41.4495 115.532 39.5388C117.527 34.283 118.613 28.2116 119.268 23.1004C119.485 21.295 119.646 19.481 119.742 17.6621C121.953 19.9391 123.981 22.3949 125.722 25.0429C128.228 28.8326 132.229 36.5833 128.56 40.5774H128.559ZM127.748 26.792C127.322 26.0301 126.877 25.2903 126.432 24.5824C124.679 21.867 122.637 19.3524 120.411 17.0191C124.55 16.9297 129.519 17.0522 133.164 18.6922C134.029 19.1246 134.98 19.7505 135.164 20.7658C135.509 23.4727 130.163 25.8391 127.747 26.7932L127.748 26.792Z" fill="white"/>
</svg>
